*******************************************************************************
         101 Zombies aka Broken Springs (2010) WEBRip - RadioResearch
*******************************************************************************

-------------------------------------------------------------------------------
                              General Information
-------------------------------------------------------------------------------
Type.................: Movie



Video Format.........: AVI
Video Bitrate........: 1637
Resolution...........: 640 x 360
Color................: 8 bit
FPS..................: 25.000
Source...............: WEB 16:9
Original Format......: NTSC
Genre................:  Horror /Action / Comedy / Drama
IMDb Rating..........: 3.1
Movie Information....: http://www.imdb.com/title/tt1521709/

-------------------------------------------------------------------------------
                               Post Information
-------------------------------------------------------------------------------
Posted by............: RadioResearch
Posted on............: 5/21/2013

-------------------------------------------------------------------------------
                                 Release Notes
-------------------------------------------------------------------------------
SEEDBOX SUPPORTED!!

Three teenage boys have their world turned upside down by tainted moonshine. 
They must rescue their loved ones and battle a marauding horde of zombies while 
fighting their way out of town. 

So I thought everything in zonbies had already been done, and then this little 
gem was re-released which puts a whole new comedic spin on it.  Personally, I 
htink it deserved better than a 3.1 on IMDB, but you decide.  Don't forget to 
vote after you watch the flick.

Enjoy!

RadioResearch


General
Complete name                            : G:101 Zombies aka Broken Springs 
(2010) WEBRip - RadioResearch101 Zombies (HD){RadioResearch}.avi
Format                                   : AVI
Format/Info                              : Audio Video Interleave
File size                                : 950 MiB
Duration                                 : 1h 21mn
Overall bit rate                         : 1 637 Kbps

Video
ID                                       : 0
Format                                   : mp43
Codec ID                                 : mp43
Duration                                 : 1h 21mn
Bit rate                                 : 1 497 Kbps
Width                                    : 640 pixels
Height                                   : 360 pixels
Display aspect ratio                     : 16:9
Frame rate                               : 25.000 fps
Bits/(Pixel*Frame)                       : 0.260
Stream size                              : 868 MiB (91%)

Audio
ID                                       : 1
Format                                   : MPEG Audio
Format version                           : Version 1
Format profile                           : Layer 3
Mode                                     : Joint stereo
Mode extension                           : MS Stereo
Codec ID                                 : 55
Codec ID/Hint                            : MP3
Duration                                 : 1h 21mn
Bit rate mode                            : Constant
Bit rate                                 : 128 Kbps
Channel(s)                               : 2 channels
Sampling rate                            : 44.1 KHz
Compression mode                         : Lossy
Stream size                              : 74.2 MiB (8%)
Alignment                                : Aligned on interleaves
Interleave, duration                     : 26 ms (0.65 video frame)
Interleave, preload duration             : 600 ms
Writing library                          : LAME3.98.2


AVI FILE MD5 HASH  6b7da13d00e4d6ef559682eaa6a2cac9



-------------------------------------------------------------------------------
Generated with Cool NFO Creator - http://fly.to/coolbeans
-------------------------------------------------------------------------------
